<?xml version="1.0" encoding="utf-8"?>
<!-- Generator: Adobe Illustrator 17.1.0, SVG Export Plug-In . SVG Version: 6.00 Build 0)  -->
<!DOCTYPE svg PUBLIC "-//W3C//DTD SVG 1.1//EN" "http://www.w3.org/Graphics/SVG/1.1/DTD/svg11.dtd">
<svg version="1.1" id="Layer_1" xmlns="http://www.w3.org/2000/svg" xmlns:xlink="http://www.w3.org/1999/xlink" x="0px" y="0px"
	 viewBox="0 290.4 612 211.3" enable-background="new 0 290.4 612 211.3" xml:space="preserve">
<path fill="#ffffff" d="M293.2,412.4c0,0-0.8,3.5-1.4,5.7c-0.6,2.1-0.9,3.6-1.6,5.5h5.8c0,0-0.9-3.1-1.6-6
	C294.1,416.3,293.2,412.4,293.2,412.4z"/>
<path fill="#ffffff" d="M307.7,461.8c0-1.9-1-3.5-2.6-4.1c-0.8-0.3-1.9-0.5-3.4-0.5h-2.9v9.6h2.7c2.4,0,3.8-0.4,4.7-1.3
	C307.2,464.7,307.7,463.4,307.7,461.8z"/>
<path fill="#ffffff" d="M346,372.3c2.3,1.7,5.2,2.5,8.6,2.5c10.1,0,14.4-7.7,14.4-26.1c0-7.4-0.6-12.7-1.9-16.7
	c-1.2-3.6-5-9.1-12.7-9.1c-4.9,0-9.1,2.5-11.2,6.3c-2.5,4.7-3.7,11-3.7,19.7C339.6,361.4,341.6,369.2,346,372.3z"/>
<path fill="#ffffff" d="M223.5,367c-7.4,0-11.6,1.7-11.6,6.8c0,4.8,3.6,6.8,10.6,6.8c6.9,0,11.7-1.6,11.7-7
	C234.1,369.4,231,367,223.5,367z"/>
<path fill="#ffffff" d="M282.9,341.3c1.8-1.6,2.8-4.2,2.8-7.3c0-4.5-1.8-7.6-5.2-8.8c-1.7-0.6-4.7-1-8.2-1h-5.2v19.5h4.9
	C278.2,343.7,280.9,343.1,282.9,341.3z"/>
<path fill="#ffffff" d="M102.8,290.4C45.8,291.8,0,338.6,0,396s45.8,104.2,102.8,105.6H612V290.4H102.8z M339.7,315.2
	c4.3-2.3,9.6-3.5,15-3.5c19.2,0,31.1,14,31.1,36.7c0,16.3-5.6,28.6-16.1,34.3c-4.3,2.4-8.4,3.3-14.4,3.3c-10.9,0-18-3-23.5-10.2
	c-5.5-7.1-8.3-16.2-8.3-26.8C323.4,333.4,329.3,320.9,339.7,315.2z M252.8,312.6h26.9c12.8,0,21.2,8.5,21.2,21.2
	c0,10.8-7.2,19.7-16.1,20c1.5,1.1,2.1,1.7,3,3c4.1,5.2,17.3,28,17.3,28h-17.2c-2.8-4.8-4-6.8-6.8-11.8c-7.2-13-9.3-16.5-11.9-17.7
	c-0.7-0.3-1.4-0.5-2.3-0.6v30.1h-14.2V312.6z M209.3,325.1c0-4.7,1-7.7,4.5-10.2c2.2-1.6,5.4-2.4,9.1-2.4c4.4,0,7.6,1.2,9.9,3
	c2.4,1.9,3.7,4.4,3.7,9.1v6.8h-27.2V325.1z M209.3,349.4h24v-10.3l3.2,0.6v13.5h-27.2V349.4z M53.8,465.4c-1.6-1.2-3.1-2.5-4.6-3.8
	v-14.2h4.6V465.4z M54.3,435h-2.6v-13.7h2.6V435z M66,473.1c-1.6-0.8-3.3-1.7-4.8-2.7v-22.9H66V473.1z M60.3,435v-13.7h3.9V435H60.3
	z M79.7,478.7c-2.1-0.7-4.2-1.4-6.3-2.3v-29h6.3V478.7z M71.5,435v-13.7h4.4V435H71.5z M88.7,435h-4.4v-13.7h4.4V435z M104.7,482.6
	c-2.1,0-4.2-0.1-6.3-0.3v-34.8h6.3C104.7,447.5,104.7,478.1,104.7,482.6z M97.2,435v-13.7h4.4V435H97.2z M117,481.9
	c-1.6,0.2-3.2,0.4-4.8,0.5v-34.9h4.8V481.9z M116.9,438.7c-4.9,0-8.8-5.2-8.8-11.5s4-11.5,8.8-11.5c4.9,0,8.8,5.2,8.8,11.5
	C125.7,433.5,121.7,438.7,116.9,438.7z M129.3,479.3c-1.6,0.4-3.2,0.9-4.8,1.2v-33.1h4.8V479.3z M162.8,429.1
	c-3.7,0-6.6-3.9-6.6-8.6c0-4.8,3-8.6,6.6-8.6c3.6,0,6.6,3.9,6.6,8.6C169.4,425.2,166.4,429.1,162.8,429.1z M170.9,453
	c-1.1,1.2-2.4,2.6-3.5,3.8v-21h3.5V453z M177.8,444v-8.2h1.2v-4.3h-0.4c0.4,0,0.8-0.4,0.8-0.9c0-0.5-0.4-0.9-0.9-0.9h-4.6v-13.4
	h-0.7v-3.5h-0.6c-1.6-12.4-10.1-23.6-21.5-27.7c0-0.1,0-0.2,0-0.3c0-0.5-0.4-0.9-0.9-0.9h-1.4v-15.8h0.1c0.5,0,0.9-0.4,0.9-0.9
	c0-0.5-0.4-0.9-0.9-0.9h-0.1h-2.4v-2.6h-0.7c-0.2,0-0.6-0.2-0.7-0.5c-0.2-0.6-0.3-0.5-0.7-0.8c-0.4-0.3-0.4-0.5,0.1-0.8
	c0.7-0.4,1-0.6,1-1c0-0.3-0.2-0.5-0.3-0.7c-0.2-0.5-0.3-0.9-0.3-1c0-0.6-0.5-0.9-1.2-1.2c-0.2-0.1-0.4-0.4-0.4-0.6c0,0,0-0.2,0-0.3
	c0.2-0.1,0.3-0.3,0.3-0.5c0-0.4-0.3-0.7-0.8-0.9c0,0,0-0.1,0-0.1c-0.1-0.4-0.2-0.6,0.2-1.1c0.2-0.2,0.6-0.4,0.7-1.4
	c0-0.8-0.2-1.1-0.5-1.4l-0.1-4.2h0.6c0,0,0.6,0,0.9-0.5c0.2-0.3,0.1-0.5,0.8-0.7c0.6-0.1,1.7,0,1.7,0s0,1.2,0,1.5
	c0,0.3,0.5,0,0.8-0.3c0.5-0.4,2.1-2,2.1-2s-1.7-1.7-2-2c-0.3-0.3-0.7-0.6-0.8-0.3s-0.1,1.5-0.1,1.5s-1,0.1-1.7,0
	c-0.6-0.1-0.6-0.4-0.8-0.7c-0.3-0.6-1-0.5-1-0.5h-0.7l-0.2-2.8c0.3-0.2,0.5-0.4,0.5-1c0-0.6-0.3-0.8-0.6-1.1l0-1.9H141l0,1.9
	c-0.3,0.2-0.5,0.6-0.5,1.1c0,0.8,0.3,0.7,0.4,1l-0.1,2.8H133c0,0,0.1,1.4,0.6,1.6c0.6,0.3,1.6,0.2,1.6,0.4c0,0.2-1.1,0.2-1.8,0.5
	c-0.5,0.3-0.5,1.6-0.5,1.6h7.5l-0.1,4.1c-0.2,0.3-0.5,0.7-0.5,1.4c0.1,0.6,0.2,0.8,0.6,1.4c0.4,0.5,0.2,0.7,0.1,1.1
	c0,0.1,0,0.1-0.1,0.1c-0.5,0.2-0.8,0.6-0.8,0.9c0,0.2,0.1,0.4,0.3,0.5c0,0,0,0.1,0,0.2c0,0.2-0.1,0.4-0.3,0.6
	c-0.7,0.3-1.2,0.8-1.2,1.3c0,0,0,0.1,0,0.2c0,0.3-0.1,0.6-0.5,1.1c0,0,0,0,0,0.1c0,0-0.1,0.2-0.1,0.3c0,0.3,0.2,0.5,0.6,0.7
	c0.1,0.1,0.3,0.2,0.5,0.3c0.6,0.3,0.5,0.4,0,0.8c-0.5,0.3-0.5,0.2-0.7,0.8c-0.1,0.4-0.5,0.5-0.8,0.5h-0.7v2.6h-2.4h-0.1
	c-0.5,0-0.9,0.4-0.9,0.9c0,0.5,0.4,0.9,0.9,0.9h0.1v15.8H133c-0.5,0-0.9,0.4-0.9,0.9c0,0.1,0,0.2,0,0.3c-3.1,1.1-6.5,3.3-9.1,5.4
	c7.2,8.7,10.5,15.6,11.8,29h1v4.7h1.1v11.2h6.1c0.8,0,1.4,0.6,1.4,1.4c0,0.7-0.5,1.3-1.2,1.3h0.7v6.2h-1.7V463h5.9v-27.3h3.7v27.4
	h5.9v-27.4h3.6v26.5c-7,5.9-15.1,10.8-23.7,14.3v-29h1.7v-5.7h-0.6c0.6-0.1,1.1-0.6,1.1-1.2c0-0.7-0.5-1.2-1.2-1.2H132v-17.8H131
	V417h-0.9c-2.1-16.5-13.9-31.4-29-36.9c0-0.1,0.1-0.2,0.1-0.4c0-0.7-0.5-1.2-1.2-1.2h-1.9v-21.1h0.2c0.7,0,1.2-0.5,1.2-1.2
	c0-0.7-0.5-1.2-1.2-1.2h-0.1h-3.2v-3.4h-1c-0.3-0.1-0.8-0.2-1-0.7c-0.3-0.8-0.3-0.6-1-1.1c-0.6-0.4-0.7-0.6,0-1
	c1.1-0.7,1.5-0.9,1.5-1.5c0-0.2-0.2-0.5-0.5-1c-0.3-0.5-0.3-1.1-0.3-1.2c-0.1-1.2-1.4-1.5-1.7-1.9c-0.2-0.2-0.3-0.4-0.3-0.6
	c0-0.1,0-0.1,0-0.2c0.3-0.2,0.5-0.5,0.5-0.8c0-0.5-0.6-1.2-1.3-1.4c0,0,0-0.1-0.1-0.2c0-0.5,0.1-0.7,0.4-1c0.4-0.5,0.6-0.5,0.7-1.8
	c0-1.1-0.4-1.5-0.8-1.9l-0.2-6h0.6c0,0,0.9,0.1,1.3-0.6c0.2-0.4,0.2-0.8,1-1c0.8-0.2,1.9,0,1.9,0s0,1.6,0.1,2s0.6-0.1,1.1-0.4
	c0.5-0.3,3-2.4,3-2.4s-2.5-2.2-3-2.5c-0.4-0.3-1-0.8-1.1-0.4c-0.1,0.4-0.1,1.9-0.1,1.9s-1.1,0.1-1.9,0c-0.8-0.2-0.8-0.6-1-1
	c-0.5-0.8-1.3-0.6-1.3-0.6h-0.9l-0.1-2.7c0.5-0.4,0.8-0.7,0.8-1.5c0-1-0.6-1.3-1-1.5l-0.1-2h-1.3l0,1.9c-0.6,0.4-1,0.8-1,1.6
	c0,0.6,0.4,1.2,0.9,1.5l-0.1,2.7h-9.8c0,0,0,1.7,0.7,2s2.8,0.3,2.8,0.7c0,0.3-1.9,0.1-2.6,0.5c-0.7,0.3-0.8,2-0.8,2h9.6l-0.2,6
	c-0.6,0.5-0.8,1-0.9,2c0,0.7,0.1,1.1,0.7,1.7c0.2,0.3,0.7,0.6,0.6,1.2c0,0.1,0,0.1-0.1,0.2c-0.7,0.2-1.3,0.9-1.3,1.3
	c0,0.3,0.1,0.5,0.4,0.7c0,0.1,0,0.1,0,0.2c0,0.3-0.2,0.6-0.4,0.8c-1,0.4-1.6,1-1.6,1.8c0,0.1,0,0.2,0,0.2c-0.1,0.4-0.1,0.8-0.7,1.5
	c0,0,0,0.1,0,0.1c0,0,0,0.1,0,0.1c0,0.1,0,0.1,0,0.2c0,0.3,0.3,0.7,0.8,1c0.2,0.1,0.4,0.3,0.6,0.4c0.8,0.5,0.7,0.6,0.1,1
	c-0.6,0.5-0.7,0.2-1,1.1c-0.1,0.5-0.7,0.7-1,0.7h-0.9v3.4h-3.3H79c-0.7,0-1.2,0.5-1.2,1.2c0,0.7,0.5,1.2,1.2,1.2h0.2v21.1h-1.9
	c-0.7,0-1.2,0.5-1.2,1.2c0,0.1,0,0.3,0.1,0.4c-15.2,5.4-26,20.4-28.1,36.9h-0.9v4.6h-0.9v17.8h-6.6c-0.7,0-1.2,0.5-1.2,1.2
	c0,0.6,0.5,1.1,1.1,1.2h-0.5v5.7h1.6v5.7C27.2,437.9,19,417.9,19,396c0-47.9,38.8-86.7,86.7-86.7c47.9,0,86.7,38.8,86.7,86.7
	C192.3,413.8,186.9,430.3,177.8,444z M152,416v10.3h-3.5V416H152z M143.6,416v10.3H140V416H143.6z M222.8,384.8c-9,0-14-4.3-14-11
	c0-8,6.7-11.2,14.2-11.2c8.3,0,13.8,4.1,13.8,11C236.9,381.1,231,384.8,222.8,384.8z M270.9,479.8c-2.2,1.4-5.2,2.2-8.1,2.2
	c-3.7,0-6.6-1.2-8.7-3.7c-2.2-2.6-3.2-5.8-3.2-10.3c0-5.5,1.6-9.3,4.7-11.9c2-1.6,4.2-2.4,6.9-2.4c3,0,5.6,0.9,7.8,2.8l-1.8,2.4
	c-2-1.5-3.8-2.1-5.9-2.1c-2.6,0-4.7,1-5.9,3.5c-1.3,2.6-1.5,4.6-1.5,7.9c0,3.8,0.7,6.6,1.9,8.3c1.2,1.5,3.6,2.5,5.9,2.5
	c1.6,0,2.9-0.4,4.1-1v-7.8h-5.1l-0.6-3.2h9.5V479.8z M273.4,435.6h-6.2v0l-5.1-11.3c-1.7-3.7-3.5-7.9-4-9.7c0.2,2.4,0.3,5.9,0.3,8.4
	l0.2,12.7h-5.8V406h6.6l5.7,11.9c1.5,3.2,2.6,6.2,3.3,8.4c-0.2-2.3-0.4-6.1-0.5-8.1l-0.1-12.1h5.7V435.6z M286.7,435.7h-6.2
	l9.7-29.7h6.4l9.3,29.7h-6.4l-2.1-7h-8.7L286.7,435.7z M308.4,481.6c-0.8-1.6-1.2-2.2-2.3-4.1c-2.1-3.5-2.8-4.7-4.7-6.9
	c-0.7-0.8-1.3-1.2-2.5-1.2v12.2h-3.9v-27.5h7.7c3.3,0,5.2,0.7,6.5,2c1.2,1.2,2.4,3,2.4,5.7c0,4.3-2.8,7.7-7.4,7.5
	c1.3,1,1.9,1.9,2.4,2.6c0.6,0.7,1.4,2,2.3,3.4c1.2,1.9,3.4,5.5,4,6.3H308.4z M323.5,435.9h-5.4L308,406h6.5l4.9,15.5
	c0.4,1.3,0.9,3,1.4,5.2c0.4-1.8,1.1-4.3,1.7-5.9l5-14.7h6.3L323.5,435.9z M350.2,481.6h-15.4v-27.5h15l-0.5,3.2h-10.6v8.4h8.9v3.2
	h-8.8v9.4h11.5V481.6z M355,435.7l-2.1-7h-8.7l-2.1,7h-6.2l9.7-29.7h6.5l9.4,29.7H355z M368.5,406h6.1v24.7h10.6l-1.1,5h-15.7V406z
	 M387.8,481.6h-15.4v-27.5h15l-0.5,3.2h-10.6v8.4h8.8v3.2h-8.8v9.4h11.5V481.6z M415.6,312.6l9.3,19.8c1.9,3.9,2.8,6.5,3.7,9.2
	c0.8-2.1,2.3-5.6,3.9-9l9.4-19.9h17.1l-23.1,42.5v29.7h-15.2v-29.7l-22.5-42.5H415.6z M407.8,432.1c-2.4-2.7-3.6-6.3-3.6-10.6
	c0-3.7,0.6-6.7,2-9.2c2.3-4.3,6.6-6.9,11.3-6.9c3,0,5.9,0.9,7.5,2.3l-2.7,4c-1.5-1.1-3.1-1.7-4.7-1.7c-2,0-4,1-5,2.6
	c-1.2,1.7-1.7,4.2-1.7,7.7c0,4,0.3,6.3,1.2,7.9c1.2,2.2,3.2,3.3,5.7,3.3c1.8,0,3.3-0.5,5.1-1.9l2.8,3.8c-2.3,1.9-4.8,2.8-8.2,2.8
	C413.4,436.2,410.2,434.9,407.8,432.1z M428.2,481.6h-4.1l-7.2-14.6c-1.4-2.8-2.8-5.9-3.4-7.5l-0.2,0c0.2,2.4,0.3,5.1,0.3,7.7
	l0.1,14.5h-3.8v-27.5h4.5l7.7,15.2c1.2,2.3,2.5,5.8,2.7,6.6l0.2-0.1c-0.1-0.8-0.4-5.1-0.4-8.2l-0.1-13.5h3.7V481.6z M434.5,431.9
	c-2.3-2.9-3.4-6.7-3.4-11c0-6.4,2.4-11.5,6.7-13.9c1.8-0.9,3.9-1.4,6.1-1.4c7.9,0,12.8,5.8,12.8,15.1c0,6.7-2.3,11.8-6.6,14.1
	c-1.8,1-3.5,1.4-5.9,1.4C439.6,436.1,436.7,434.9,434.5,431.9z M474.5,481.7h-4.7l-3.1-13.8c-0.7-3.4-1.2-6.3-1.4-7.9h-0.2
	c-0.2,1.4-0.8,4.9-1.4,7.8l-3,14H456l-6.5-27.6h4.1l3,14.2c0.8,4,1.2,7,1.5,8.7h0.2c0.3-2,0.8-5.2,1.5-8.3l3.2-14.5h4.4l3.2,14.6
	c0.7,3.1,1.3,7,1.4,8.1h0.2c0.2-1.6,1-6,1.6-8.8l2.9-13.9h4L474.5,481.7z M481,435.7h-15.6V406h6.1v24.7H482L481,435.7z
	 M506.1,481.6h-3.9v-27.5h3.9V481.6z M505.4,435.7h-15.7V406h6.1v24.7h10.6L505.4,435.7z M506.8,367.7h-21.2l-5.1,17.1h-15.2
	l23.7-72.4h15.7l22.8,72.4h-15.6L506.8,367.7z M514.1,435.7L514.1,435.7V406H531l-0.8,4.9h-10.2v6.9h8.5v4.9h-8.4v7.9h11.2v5.1
	L514.1,435.7L514.1,435.7z M540.8,482c-3.6,0-6.5-1.5-8.5-4.1c-2-2.5-3-5.8-3-9.8c0-3.2,0.6-5.9,1.8-8.2c2-3.9,5.7-6.3,9.9-6.3
	c2.6,0,5,0.7,6.7,2.2l-1.8,2.5c-1.5-1.1-3-1.6-4.9-1.6c-2.7,0-4.8,1.4-6.1,3.9c-0.9,1.8-1.3,4.1-1.3,7.4c0,3.1,0.3,4.9,1,6.5
	c1.3,3,3.8,4.4,6.7,4.4c2.1,0,3.6-0.5,5.1-1.7l1.9,2.5C546.1,481.2,543.6,482,540.8,482z M560.2,433.4c-3,1.8-6.3,2.7-9.8,2.7
	c-4.4,0-7.7-1.5-10.1-4.5c-2.2-2.8-3.2-5.9-3.2-10.4c0-6.3,2.1-10.7,6.2-13.5c2.2-1.5,4.4-2.1,7.2-2.1c3.6,0,6.8,1.1,9.4,3.4
	l-3.2,3.7c-1.9-1.6-3.9-2.3-6.2-2.3c-1.7,0-3.2,0.5-4.2,1.5c-2,1.9-2.5,5.1-2.5,9.6c0,4.2,0.7,7,2.2,8.4c1.1,1.1,2.7,1.7,4.6,1.7
	c1.3,0,2.4-0.2,3.4-0.7V424h-4.5l-0.8-4.9h11.5V433.4z M587.6,481.6h-3.9v-13.1h-10.5v13h-3.8v-27.5h3.8v11.3h10.5v-11.3h3.9V481.6z
	 M584.7,417.7v4.9h-8.4v7.9h11.2v5.1h-17.3v0v0V406h16.9l-0.8,4.9h-10.2v6.9H584.7z M585,384.8h-38.1v-72.2h14.9v60.2h25.9
	L585,384.8z"/>
<path fill="#ffffff" d="M496.4,328.3c0,0-2.1,8.5-3.4,13.9c-1.3,5.2-2.3,8.6-3.8,13.4h14.1c0,0-2.4-7.6-4-14.6
	C498.5,337.7,496.4,328.3,496.4,328.3z"/>
<path fill="#ffffff" d="M443.8,410.2c-2,0-3.8,1-4.6,2.6c-1,1.9-1.5,4.5-1.5,8.1c0,5.1,0.9,8.3,2.6,9.6c0.9,0.7,2.2,1,3.6,1
	c4.1,0,5.9-3.2,5.9-10.7c0-3.1-0.3-5.2-0.8-6.9C448.5,412.5,447,410.2,443.8,410.2z"/>
<path fill="#ffffff" d="M348.6,412.4c0,0-0.8,3.5-1.4,5.7c-0.5,2.1-0.9,3.6-1.6,5.5h5.8c0,0-0.9-3.1-1.6-6
	C349.5,416.3,348.6,412.4,348.6,412.4z"/>
<path fill="#ffffff" d="M230.3,318.2c-1.8-1-4.2-1.5-6.9-1.5c-3.8,0-6.6,0.4-8.6,2c-1.9,1.5-2.4,3.1-2.4,5.7v3.1h21v-3
	C233.4,321.4,232.5,319.4,230.3,318.2z"/>
</svg>
